<?xml version="1.0" encoding="UTF-8"?>
<svg width="223px" height="85px" viewBox="0 0 223 85" version="1.1" xmlns="http://www.w3.org/2000/svg" xmlns:xlink="http://www.w3.org/1999/xlink">
    <title>Artboard</title>
    <g id="Artboard" stroke="none" stroke-width="1" fill="none" fill-rule="evenodd">
        <g id="Group-19" transform="translate(-0.500000, 0.000000)" fill-rule="nonzero">
            <path d="M108.09,77.585 C111.42,77.585 114.675,77.195 117.855,76.415 L117.855,76.415 L117.72,68.495 L110.7,68.765 C109.29,68.765 108.27,68.6075 107.64,68.2925 C107.01,67.9775 106.5525,67.34 106.2675,66.38 C105.9825,65.42 105.84,63.695 105.84,61.205 C105.84,58.715 106.14,57.0725 106.74,56.2775 C107.34,55.4825 108.6825,55.085 110.7675,55.085 C112.8525,55.085 115.125,55.235 117.585,55.535 L117.585,55.535 L117.855,47.48 L116.28,47.165 C113.34,46.565 110.79,46.265 108.63,46.265 C103.44,46.265 99.9225,47.3675 98.0775,49.5725 C96.2325,51.7775 95.31,55.865 95.31,61.835 C95.31,66.005 95.7075,69.2 96.5025,71.42 C97.2975,73.64 98.595,75.2225 100.395,76.1675 C102.195,77.1125 104.76,77.585 108.09,77.585 Z M130.775,77 L130.775,46.85 L120.335,46.85 L120.335,77 L130.775,77 Z M149.68,77 L149.68,55.355 L155.53,55.355 L155.53,46.85 L133.03,46.85 L133.03,55.355 L139.24,55.355 L139.24,77 L149.68,77 Z M168.27,77 L168.27,46.85 L157.83,46.85 L157.83,77 L168.27,77 Z M194.06,77 L194.06,68.675 L181.91,68.675 L181.91,65.975 L191.36,65.975 L191.36,57.74 L181.91,57.74 L181.91,55.175 L194.06,55.175 L194.06,46.85 L171.47,46.85 L171.47,77 L194.06,77 Z M208.96,77.63 C212.95,77.63 215.935,76.835 217.915,75.245 C219.895,73.655 220.885,71 220.885,67.28 C220.885,65.48 220.7275,64.0475 220.4125,62.9825 C220.0975,61.9175 219.4525,61.0175 218.4775,60.2825 C217.5025,59.5475 216.4075,58.9775 215.1925,58.5725 C213.9775,58.1675 212.4175,57.755 210.5125,57.335 C208.6075,56.915 207.475,56.615 207.115,56.435 C206.755,56.255 206.575,56 206.575,55.67 C206.575,55.34 206.7325,55.1225 207.0475,55.0175 C207.3625,54.9125 208.48,54.86 210.4,54.86 C212.32,54.86 215.395,55.085 219.625,55.535 L219.625,55.535 L219.895,47.435 L218.005,47.12 C214.165,46.55 210.82,46.265 207.97,46.265 C203.92,46.265 200.92,47.015 198.97,48.515 C197.02,50.015 196.045,52.79 196.045,56.84 C196.045,60.02 196.8025,62.3075 198.3175,63.7025 C199.8325,65.0975 202.69,66.125 206.89,66.785 C208.48,67.025 209.455,67.2125 209.815,67.3475 C210.175,67.4825 210.355,67.7 210.355,68 C210.355,68.69 209.575,69.035 208.015,69.035 C205.075,69.035 201.31,68.705 196.72,68.045 L196.72,68.045 L196.27,76.01 L198.2595,76.469 C199.384167,76.721 200.9335,76.973 202.9075,77.225 C205.0225,77.495 207.04,77.63 208.96,77.63 Z" id="CITIES" fill="#9C7A97"></path>
            <path d="M11.79,42 L11.79,34.215 L14.355,34.215 L16.065,42 L26.685,42 L23.715,31.74 C25.935,29.94 27.045,26.9475 27.045,22.7625 C27.045,18.5775 26.04,15.7125 24.03,14.1675 C22.02,12.6225 18.69,11.85 14.04,11.85 L14.04,11.85 L1.35,11.85 L1.35,42 L11.79,42 Z M14.31,25.98 L11.745,25.98 L11.745,20.085 L14.04,20.085 C15.69,20.085 16.515,21.0675 16.515,23.0325 C16.515,24.9975 15.78,25.98 14.31,25.98 L14.31,25.98 Z M52.205,42 L52.205,33.675 L40.055,33.675 L40.055,30.975 L49.505,30.975 L49.505,22.74 L40.055,22.74 L40.055,20.175 L52.205,20.175 L52.205,11.85 L29.615,11.85 L29.615,42 L52.205,42 Z M65.26,42 L65.26,35.61 L66.655,35.61 C71.395,35.61 74.86,34.7475 77.05,33.0225 C79.24,31.2975 80.335,28.1625 80.335,23.6175 C80.335,19.0725 79.2475,15.975 77.0725,14.325 C74.8975,12.675 71.425,11.85 66.655,11.85 L66.655,11.85 L54.82,11.85 L54.82,42 L65.26,42 Z M66.205,27.375 L65.26,27.375 L65.26,20.085 L66.205,20.085 C67.555,20.085 68.4925,20.325 69.0175,20.805 C69.5425,21.285 69.805,22.215 69.805,23.595 C69.805,24.975 69.5275,25.95 68.9725,26.52 C68.4175,27.09 67.495,27.375 66.205,27.375 L66.205,27.375 Z M89.79,42 L90.51,38.535 L97.395,38.535 L98.25,42 L108.78,42 L101.985,11.85 L86.19,11.85 L79.53,42 L89.79,42 Z M96.315,30.57 L91.86,30.57 L93.57,20.04 L94.695,20.04 L96.315,30.57 Z M120.8,42 L120.8,11.85 L110.36,11.85 L110.36,42 L120.8,42 Z M134.44,42 L134.44,34.215 L137.005,34.215 L138.715,42 L149.335,42 L146.365,31.74 C148.585,29.94 149.695,26.9475 149.695,22.7625 C149.695,18.5775 148.69,15.7125 146.68,14.1675 C144.67,12.6225 141.34,11.85 136.69,11.85 L136.69,11.85 L124,11.85 L124,42 L134.44,42 Z M136.96,25.98 L134.395,25.98 L134.395,20.085 L136.69,20.085 C138.34,20.085 139.165,21.0675 139.165,23.0325 C139.165,24.9975 138.43,25.98 136.96,25.98 L136.96,25.98 Z" id="REPAIR" fill="#71B8C5"></path>
        </g>
    </g>
</svg>