<?xml version="1.0" encoding="UTF-8"?>
<svg width="223px" height="85px" viewBox="0 0 223 85" version="1.1" xmlns="http://www.w3.org/2000/svg" xmlns:xlink="http://www.w3.org/1999/xlink">
    <title>Artboard</title>
    <g id="Artboard" stroke="none" stroke-width="1" fill="none" fill-rule="evenodd">
        <g id="Group-19" transform="translate(0.850000, 11.850000)" fill-rule="nonzero">
            <path d="M106.74,65.735 C110.07,65.735 113.325,65.345 116.505,64.565 L116.505,64.565 L116.37,56.645 L109.35,56.915 C107.94,56.915 106.92,56.7575 106.29,56.4425 C105.66,56.1275 105.2025,55.49 104.9175,54.53 C104.6325,53.57 104.49,51.845 104.49,49.355 C104.49,46.865 104.79,45.2225 105.39,44.4275 C105.99,43.6325 107.3325,43.235 109.4175,43.235 C111.5025,43.235 113.775,43.385 116.235,43.685 L116.235,43.685 L116.505,35.63 L114.93,35.315 C111.99,34.715 109.44,34.415 107.28,34.415 C102.09,34.415 98.5725,35.5175 96.7275,37.7225 C94.8825,39.9275 93.96,44.015 93.96,49.985 C93.96,54.155 94.3575,57.35 95.1525,59.57 C95.9475,61.79 97.245,63.3725 99.045,64.3175 C100.845,65.2625 103.41,65.735 106.74,65.735 Z M129.425,65.15 L129.425,35 L118.985,35 L118.985,65.15 L129.425,65.15 Z M148.33,65.15 L148.33,43.505 L154.18,43.505 L154.18,35 L131.68,35 L131.68,43.505 L137.89,43.505 L137.89,65.15 L148.33,65.15 Z M166.92,65.15 L166.92,35 L156.48,35 L156.48,65.15 L166.92,65.15 Z M192.71,65.15 L192.71,56.825 L180.56,56.825 L180.56,54.125 L190.01,54.125 L190.01,45.89 L180.56,45.89 L180.56,43.325 L192.71,43.325 L192.71,35 L170.12,35 L170.12,65.15 L192.71,65.15 Z M207.61,65.78 C211.6,65.78 214.585,64.985 216.565,63.395 C218.545,61.805 219.535,59.15 219.535,55.43 C219.535,53.63 219.3775,52.1975 219.0625,51.1325 C218.7475,50.0675 218.1025,49.1675 217.1275,48.4325 C216.1525,47.6975 215.0575,47.1275 213.8425,46.7225 C212.6275,46.3175 211.0675,45.905 209.1625,45.485 C207.2575,45.065 206.125,44.765 205.765,44.585 C205.405,44.405 205.225,44.15 205.225,43.82 C205.225,43.49 205.3825,43.2725 205.6975,43.1675 C206.0125,43.0625 207.13,43.01 209.05,43.01 C210.97,43.01 214.045,43.235 218.275,43.685 L218.275,43.685 L218.545,35.585 L216.655,35.27 C212.815,34.7 209.47,34.415 206.62,34.415 C202.57,34.415 199.57,35.165 197.62,36.665 C195.67,38.165 194.695,40.94 194.695,44.99 C194.695,48.17 195.4525,50.4575 196.9675,51.8525 C198.4825,53.2475 201.34,54.275 205.54,54.935 C207.13,55.175 208.105,55.3625 208.465,55.4975 C208.825,55.6325 209.005,55.85 209.005,56.15 C209.005,56.84 208.225,57.185 206.665,57.185 C203.725,57.185 199.96,56.855 195.37,56.195 L195.37,56.195 L194.92,64.16 L196.9095,64.619 C198.034167,64.871 199.5835,65.123 201.5575,65.375 C203.6725,65.645 205.69,65.78 207.61,65.78 Z" id="CITIES" fill="#5A939D"></path>
            <path d="M10.44,30.15 L10.44,22.365 L13.005,22.365 L14.715,30.15 L25.335,30.15 L22.365,19.89 C24.585,18.09 25.695,15.0975 25.695,10.9125 C25.695,6.7275 24.69,3.8625 22.68,2.3175 C20.67,0.7725 17.34,0 12.69,0 L12.69,0 L0,0 L0,30.15 L10.44,30.15 Z M12.96,14.13 L10.395,14.13 L10.395,8.235 L12.69,8.235 C14.34,8.235 15.165,9.2175 15.165,11.1825 C15.165,13.1475 14.43,14.13 12.96,14.13 L12.96,14.13 Z M50.855,30.15 L50.855,21.825 L38.705,21.825 L38.705,19.125 L48.155,19.125 L48.155,10.89 L38.705,10.89 L38.705,8.325 L50.855,8.325 L50.855,0 L28.265,0 L28.265,30.15 L50.855,30.15 Z M63.91,30.15 L63.91,23.76 L65.305,23.76 C70.045,23.76 73.51,22.8975 75.7,21.1725 C77.89,19.4475 78.985,16.3125 78.985,11.7675 C78.985,7.2225 77.8975,4.125 75.7225,2.475 C73.5475,0.825 70.075,0 65.305,0 L65.305,0 L53.47,0 L53.47,30.15 L63.91,30.15 Z M64.855,15.525 L63.91,15.525 L63.91,8.235 L64.855,8.235 C66.205,8.235 67.1425,8.475 67.6675,8.955 C68.1925,9.435 68.455,10.365 68.455,11.745 C68.455,13.125 68.1775,14.1 67.6225,14.67 C67.0675,15.24 66.145,15.525 64.855,15.525 L64.855,15.525 Z M88.44,30.15 L89.16,26.685 L96.045,26.685 L96.9,30.15 L107.43,30.15 L100.635,0 L84.84,0 L78.18,30.15 L88.44,30.15 Z M94.965,18.72 L90.51,18.72 L92.22,8.19 L93.345,8.19 L94.965,18.72 Z M119.45,30.15 L119.45,0 L109.01,0 L109.01,30.15 L119.45,30.15 Z M133.09,30.15 L133.09,22.365 L135.655,22.365 L137.365,30.15 L147.985,30.15 L145.015,19.89 C147.235,18.09 148.345,15.0975 148.345,10.9125 C148.345,6.7275 147.34,3.8625 145.33,2.3175 C143.32,0.7725 139.99,0 135.34,0 L135.34,0 L122.65,0 L122.65,30.15 L133.09,30.15 Z M135.61,14.13 L133.045,14.13 L133.045,8.235 L135.34,8.235 C136.99,8.235 137.815,9.2175 137.815,11.1825 C137.815,13.1475 137.08,14.13 135.61,14.13 L135.61,14.13 Z" id="REPAIR" fill="#FFFFFF"></path>
        </g>
    </g>
</svg>